<svg style="margin-top: 8%" width="448" height="512" viewBox="0 0 448 512" fill="none" xmlns="http://www.w3.org/2000/svg">
<path d="M224 268C274.816 268 316 226.816 316 176C316 125.184 274.816 84 224 84C173.184 84 132 125.184 132 176C132 226.816 173.184 268 224 268ZM288.4 291H276.397C260.441 298.331 242.688 302.5 224 302.5C205.312 302.5 187.631 298.331 171.603 291H159.6C106.269 291 63 334.269 63 387.6V417.5C63 436.547 78.4531 452 97.5 452H350.5C369.547 452 385 436.547 385 417.5V387.6C385 334.269 341.731 291 288.4 291Z" fill="currentColor"/>
</svg>
